<?xml version="1.0" encoding="utf-8"?>
<!-- Generator: Adobe Illustrator 27.0.0, SVG Export Plug-In . SVG Version: 6.00 Build 0)  -->
<svg version="1.1" id="Layer_1" xmlns="http://www.w3.org/2000/svg" xmlns:xlink="http://www.w3.org/1999/xlink" x="0px" y="0px"
	 viewBox="0 0 1000 1000" style="enable-background:new 0 0 1000 1000;" xml:space="preserve">
<style type="text/css">
	.st0{fill:#FFFFFF;}
	.st1{fill:#333333;}
</style>
<rect class="st0" width="1000" height="1000"/>
<path class="st1" d="M867.7,885.3C786.1,955.1,670.9,990,522.2,990c-51.1,0-97-3.5-137.7-10.5s-87.9-19.4-141.6-37.3l-2.8-6.8
	c6.1-16.4,10.8-37.1,14.2-61.9c4-27.7,7-53.9,8.9-78.7h47.1c1,24.4,2.6,44.8,4.8,61.3c25.4,24.5,53.9,42.7,85.5,54.8
	s72,18.1,121.2,18.1c89,0,160.1-26,213.5-77.9s80-124.4,80-217.5c0-56.3-9-105.5-27-147.4c-18-42-41.9-76.7-71.7-104.2
	c-29.9-27.5-60-47.5-90.3-60.1c-41.2-16.8-91.2-25.2-149.9-25.2c-38.6,0-75.1,4-109.6,12.1s-71.9,21.9-112.4,41.4L240,338.3l26.1-53
	c47.3-23.1,89.8-38.9,127.5-47.5S478.2,225,534.7,225c80.2,0,151.2,11.7,212.9,35.1c48.4,18.9,89.5,43.9,123.2,75
	s59.6,64.9,77.8,101.3c27.6,54.9,41.4,114.6,41.4,179C990,725.6,949.2,815.5,867.7,885.3z"/>
<path class="st1" d="M633.4,691c-34.4,8.1-71,12.1-109.6,12.1c-58.7,0-108.6-8.4-149.9-25.2c-30.3-12.6-60.4-32.6-90.3-60.1
	s-53.8-62.2-71.8-104.1c-18-42-27-91.1-27-147.4c0-93,26.7-165.5,80.1-217.5s124.5-77.9,213.5-77.9c49.2,0,89.6,6,121.2,18.1
	s60.1,30.4,85.5,54.8c2.2,16.5,3.7,37,4.8,61.3h47.1c1.9-24.8,4.9-51,8.9-78.7c3.4-24.8,8.1-45.5,14.2-61.9l-2.8-6.8
	c-53.7-17.8-101-30.3-141.6-37.3S528.9,10,477.8,10c-148.7,0-263.9,34.9-345.5,104.7S10,274.4,10,384.6c0,64.4,13.8,124,41.5,178.9
	c18.2,36.4,44.1,70.1,77.8,101.3c33.7,31.1,74.8,56.1,123.2,75c61.7,23.5,132.7,35.2,212.9,35.2c56.4,0,103.4-4.3,141.1-12.8
	c37.7-8.6,80.1-24.4,127.5-47.5l26.1-53l-14.2-12.1C705.3,669.2,667.8,683,633.4,691z"/>
<g>
	<rect x="385" y="385" class="st0" width="230" height="230"/>
	<path d="M595,405v190H405V405H595 M635,365H365v270h270V365L635,365z"/>
</g>
<g>
	<circle cx="460" cy="500" r="27.5"/>
</g>
<g>
	<circle cx="540" cy="500" r="27.5"/>
</g>
</svg>
