<?xml version="1.0" standalone="no"?>
<!DOCTYPE svg PUBLIC "-//W3C//DTD SVG 20010904//EN"
 "http://www.w3.org/TR/2001/REC-SVG-20010904/DTD/svg10.dtd">
<svg version="1.0" xmlns="http://www.w3.org/2000/svg"
 width="700.000000pt" height="700.000000pt" viewBox="0 0 700.000000 700.000000"
 preserveAspectRatio="xMidYMid meet">
<metadata>
Created by potrace 1.14, written by Peter Selinger 2001-2017
</metadata>
<g transform="translate(0.000000,700.000000) scale(0.100000,-0.100000)"
fill="#000000" stroke="none">
<path d="M3000 6923 c-655 -45 -1109 -156 -1552 -380 -553 -278 -984 -734
-1201 -1268 -74 -180 -126 -381 -159 -610 -20 -140 -17 -610 5 -755 94 -611
324 -1078 731 -1486 141 -141 235 -218 401 -326 420 -276 945 -447 1545 -502
461 -43 1015 -23 1390 49 230 45 499 133 750 245 63 29 140 63 170 76 l56 25
94 188 93 189 -38 33 c-21 19 -44 38 -52 42 -9 6 -61 -12 -151 -52 -242 -106
-424 -170 -635 -221 -535 -131 -1227 -114 -1699 40 -406 133 -822 457 -1069
832 -71 108 -178 317 -225 440 -49 127 -108 366 -131 523 -22 161 -26 668 -5
805 75 494 231 834 516 1122 303 306 672 479 1171 550 122 17 588 17 725 0
134 -17 272 -46 380 -78 116 -35 314 -131 429 -208 105 -71 235 -177 250 -204
5 -10 15 -92 21 -182 6 -91 14 -184 16 -207 l5 -43 164 0 164 0 5 53 c3 28 13
115 21 192 33 305 66 502 111 658 13 49 22 98 18 109 -8 25 -32 35 -255 103
-478 146 -855 217 -1284 245 -143 9 -660 11 -775 3z"/>
<path d="M3407 5419 c-312 -15 -581 -57 -815 -125 -199 -58 -344 -114 -673
-261 l-55 -25 -93 -186 -93 -187 48 -43 c27 -23 56 -41 64 -38 8 2 89 37 180
77 437 191 795 272 1265 286 389 11 751 -35 1044 -134 299 -100 649 -343 876
-606 307 -355 488 -796 536 -1310 18 -191 7 -597 -20 -757 -89 -520 -307 -907
-671 -1192 -275 -214 -573 -335 -975 -395 -166 -24 -605 -24 -785 0 -283 40
-495 110 -705 235 -68 41 -219 152 -283 209 -43 37 -44 40 -53 124 -5 47 -13
144 -17 215 l-7 129 -167 3 c-113 2 -168 -1 -168 -8 0 -30 -33 -324 -51 -455
-26 -190 -53 -333 -84 -440 -36 -124 -37 -122 137 -178 659 -211 1133 -286
1800 -287 1138 -1 1954 269 2556 845 385 367 627 839 707 1375 23 152 31 490
16 659 -48 538 -242 1038 -552 1418 -630 771 -1609 1119 -2962 1052z"/>
<path d="M2550 3500 l0 -950 950 0 950 0 0 950 0 950 -950 0 -950 0 0 -950z
m1610 0 l0 -660 -660 0 -660 0 0 660 0 660 660 0 660 0 0 -660z"/>
<path d="M3171 3688 c-61 -13 -125 -79 -139 -142 -15 -72 2 -130 53 -181 137
-137 364 -12 323 178 -22 104 -127 168 -237 145z"/>
<path d="M3731 3688 c-61 -13 -125 -79 -139 -142 -15 -72 2 -130 53 -181 137
-137 364 -12 323 178 -22 104 -127 168 -237 145z"/>
</g>
</svg>
